<svg width="660" height="571" viewBox="0 0 660 571" fill="none" xmlns="http://www.w3.org/2000/svg">
<path fill-rule="evenodd" clip-rule="evenodd" d="M119.112 822L123.994 790.906C128.876 759.811 138.639 697.623 153.284 635.434C167.929 574.16 188.432 511.971 198.195 449.783C207.959 387.594 207.959 325.406 178.669 263.217C148.402 201.028 88.8461 138.84 53.6982 77.5658C19.5266 15.3772 9.76328 -46.8114 4.88162 -77.9057L-4.06953e-05 -109L660 -109L660 -18.0035C660 13.0908 660 73.9076 660 136.096C660 197.37 660 251.785 660 313.974C660 376.163 660 382.172 660 444.36C660 506.549 660 473.561 660 534.835C660 597.024 660 790.906 660 822L267.515 822L119.112 822Z" fill="url(#paint0_linear)"/>
<defs>
<linearGradient id="paint0_linear" x1="330" y1="567.5" x2="330" y2="1.7355e-05" gradientUnits="userSpaceOnUse">
<stop stop-color="#779D98"/>
<stop offset="1" stop-color="#CCE9C2"/>
</linearGradient>
</defs>
</svg>
